<svg xmlns="http://www.w3.org/2000/svg" version="1.1" viewBox="-5.0 -5.0 110.0 110.0">
 <path d="m78.953 10.609-42.281 30.203c-6.332 4.5234-6.3281 13.848 0 18.371l42.285 30.203c7.4805 5.3438 17.848 0 17.848-9.1836l-0.003907-60.41c0-9.1836-10.367-14.523-17.848-9.1836zm-66.25-2.6172c-2.6172 0-4.9922 1.0664-6.7148 2.7891 0 0.0625-2.7891 2.4453-2.7891 6.7148v65.004c0 8.3789 10.211 12.723 16.219 6.7148 1.7227-1.7227 2.7891-4.0977 2.7891-6.7148v-65.004c0-2.6172-1.0703-4.9922-2.7891-6.7148l-0.003907 0.003906c-1.7266-1.7227-4.1016-2.793-6.7109-2.793z" fill-rule="evenodd"/>
</svg>