<svg xmlns="http://www.w3.org/2000/svg" xmlns:xlink="http://www.w3.org/1999/xlink" version="1.1" x="0px" y="0px" viewBox="-5.0 -5.0 110.0 110.0"><style type="text/css">
	.st0{fill-rule:evenodd;clip-rule:evenodd;}
</style><path class="st0" d="M50,5.446c24.607,0,44.554,19.948,44.554,44.554S74.607,94.554,50,94.554S5.446,74.607,5.446,50  S25.393,5.446,50,5.446L50,5.446z M67.223,28.157L50,45.38L32.777,28.157c-3.041-3.041-7.662,1.579-4.62,4.62L45.38,50  L28.157,67.223c-3.041,3.041,1.579,7.662,4.62,4.62L50,54.62l17.223,17.223c3.041,3.041,7.662-1.579,4.62-4.62L54.62,50  l17.223-17.223C74.885,29.736,70.264,25.115,67.223,28.157z"/></svg>