<svg xmlns="http://www.w3.org/2000/svg" xmlns:xlink="http://www.w3.org/1999/xlink" version="1.1" viewBox="-5.0 -5.0 110.0 110.0" ><path class="st0" d="M35.079,62.999h5.694c2.385,0,4.352,1.967,4.352,4.352v3.547h49.87v6.599h-49.87  c0,2.668,0.407,4.94-1.276,6.624c-0.787,0.787-1.876,1.276-3.076,1.276h-5.694c-2.388,0-4.352-1.965-4.352-4.352v-3.548H5.005  v-6.599h25.722c0-2.667-0.407-4.94,1.276-6.622C32.791,63.488,33.88,62.999,35.079,62.999L35.079,62.999z M5.005,22.503h5.325  c0-2.667-0.407-4.94,1.276-6.623c0.788-0.788,1.876-1.276,3.076-1.276h5.694c2.385,0,4.352,1.967,4.352,4.352v3.547h70.268v6.599  H24.728v3.547c0,1.958-1.276,3.032-1.276,3.076c-0.788,0.788-1.876,1.277-3.076,1.277h-5.694c-1.2,0-2.288-0.489-3.076-1.277  c0-0.043-1.276-1.118-1.276-3.076v-3.547H5.005V22.503L5.005,22.503z M5.005,46.7H66.02c0-2.69-0.409-4.929,1.286-6.623  c0.788-0.787,1.873-1.276,3.066-1.276h5.694c2.387,0,4.352,1.964,4.352,4.352V46.7h14.577V53.3H80.419v3.547  c0,1.958-1.276,3.032-1.276,3.076c-0.788,0.788-1.876,1.276-3.076,1.276h-5.694c-1.2,0-2.288-0.489-3.076-1.276  c0-0.044-1.276-1.118-1.276-3.076V53.3H5.005V46.7z"/></svg>