<svg xmlns="http://www.w3.org/2000/svg" version="1.1" viewBox="-5.0 -5.0 110.0 110.0">
 <path d="m90.094 79.797-18.844-18.844c-0.5-0.5-0.60938-1.2656-0.25-1.8594 7.9375-13.359 5.7969-30.375-5.1875-41.359-6.6719-6.6719-15.547-10.188-24.953-9.9531-9.4219 0.25-18.094 4.2656-24.422 11.297-11.922 13.297-11.281 34.328 1.4531 46.891 10.984 10.844 27.922 12.906 41.203 5.0312 0.57812-0.35938 1.3594-0.25 1.8594 0.25l18.609 18.609c1.5312 1.5312 3.5156 2.3125 5.4844 2.3125 1.7188 0 3.4219-0.59375 4.7656-1.8125 1.5-1.3438 2.3594-3.2031 2.4062-5.2188 0.0625-2-0.71875-3.9375-2.125-5.3438zm-31.891-54.469c9.0625 9.0625 9.0625 23.812 0 32.875s-23.812 9.0625-32.875 0c-9.0469-9.0625-9.0469-23.812 0-32.875 4.3906-4.375 10.234-6.7969 16.438-6.7969 3.1094 0 6.125 0.60938 8.9062 1.75 2.7812 1.1562 5.3281 2.8594 7.5312 5.0469z"/>
</svg>